<svg width="103" height="102" viewBox="0 0 103 102" fill="none" xmlns="http://www.w3.org/2000/svg">
<path d="M23.7695 64.852C36.634 64.852 45.4943 53.7766 45.4943 37.845C45.4943 21.9135 36.634 10.8381 23.7695 10.8381C10.905 10.8381 2.12988 21.9135 2.12988 37.845C2.12988 53.7766 10.905 64.852 23.7695 64.852ZM23.7695 22.8506C29.8184 22.8506 32.2039 29.7514 32.2039 37.845C32.2039 45.9386 29.8184 52.8394 23.7695 52.8394C17.7206 52.8394 15.3352 45.9386 15.3352 37.845C15.3352 29.7514 17.7206 22.8506 23.7695 22.8506ZM88.2278 11.69H75.1929L59.3466 44.2347V54.2877H82.0938V64H93.8507V54.2877H101.007V43.2123H93.8507V34.352H82.0938V43.2123H73.8298L88.2278 11.69Z" fill="white" fill-opacity="0.2"/>
<path d="M36.8747 75.9449C38.5981 75.9449 39.7588 74.9366 39.7588 72.9669V68.629H38.5395V72.8263C38.5395 74.2097 37.9533 74.8545 36.8747 74.8545C35.7961 74.8545 35.2099 74.2097 35.2099 72.8263V68.629H33.9905V72.9552C33.9905 74.9366 35.163 75.9449 36.8747 75.9449ZM40.8069 74.3269C40.9594 75.3352 41.8035 75.9449 43.0228 75.9449C44.1952 75.9449 45.0511 75.3118 45.0511 74.2801C45.0511 73.518 44.6056 73.0138 43.7145 72.8028L42.6125 72.5449C42.2373 72.4511 42.0731 72.2987 42.0731 72.0642C42.0731 71.6538 42.4952 71.4663 42.9056 71.4663C43.4449 71.4663 43.7497 71.7007 43.8552 72.0407H45.0042C44.8283 71.0911 44.1366 70.5049 42.9173 70.5049C41.78 70.5049 40.9476 71.1966 40.9476 72.1345C40.9476 72.9904 41.4987 73.389 42.2373 73.5649L43.3159 73.8228C43.7497 73.9283 43.9256 74.0807 43.9256 74.3621C43.9256 74.7725 43.5738 74.9835 43.0345 74.9835C42.5187 74.9835 42.1318 74.7607 42.0028 74.3269H40.8069ZM49.4091 74.2097C49.2801 74.7138 48.858 74.9601 48.2953 74.9601C47.5449 74.9601 47.0173 74.409 46.9822 73.4945H50.5346V73.0725C50.5346 71.5483 49.7373 70.5049 48.2718 70.5049C46.8532 70.5049 45.8332 71.6773 45.8332 73.2366C45.8332 74.8428 46.8415 75.9449 48.2953 75.9449C49.5498 75.9449 50.3118 75.2414 50.4877 74.2097H49.4091ZM48.2836 71.4897C48.9987 71.4897 49.3622 72.0056 49.3739 72.6387H47.0173C47.158 71.8883 47.6387 71.4897 48.2836 71.4897ZM54.5198 70.5987C54.4377 70.5518 54.2032 70.5049 53.9453 70.5049C53.4412 70.5049 52.9839 70.7745 52.7846 71.1614V70.6221H51.6122V75.8276H52.7846V72.4628C52.9019 71.9001 53.3474 71.6304 53.8281 71.6304C54.0743 71.6304 54.3557 71.689 54.5198 71.8063V70.5987ZM61.0331 73.1428C62.5221 73.1428 63.4952 72.3573 63.4952 70.8918C63.4952 69.4028 62.5221 68.629 61.0331 68.629H58.2545V75.8276H59.4738V73.1428H61.0331ZM62.2876 70.8918C62.2876 71.5835 61.8538 72.0876 61.0096 72.0876H59.4738V69.6842H61.0096C61.8538 69.6842 62.2876 70.1766 62.2876 70.8918ZM67.5563 74.2097C67.4273 74.7138 67.0053 74.9601 66.4425 74.9601C65.6922 74.9601 65.1646 74.409 65.1294 73.4945H68.6818V73.0725C68.6818 71.5483 67.8846 70.5049 66.4191 70.5049C65.0004 70.5049 63.9804 71.6773 63.9804 73.2366C63.9804 74.8428 64.9887 75.9449 66.4425 75.9449C67.697 75.9449 68.4591 75.2414 68.6349 74.2097H67.5563ZM66.4308 71.4897C67.146 71.4897 67.5094 72.0056 67.5211 72.6387H65.1646C65.3053 71.8883 65.786 71.4897 66.4308 71.4897ZM72.667 70.5987C72.5849 70.5518 72.3505 70.5049 72.0925 70.5049C71.5884 70.5049 71.1312 70.7745 70.9318 71.1614V70.6221H69.7594V75.8276H70.9318V72.4628C71.0491 71.9001 71.4946 71.6304 71.9753 71.6304C72.2215 71.6304 72.5029 71.689 72.667 71.8063V70.5987ZM73.3231 74.3269C73.4755 75.3352 74.3197 75.9449 75.539 75.9449C76.7114 75.9449 77.5672 75.3118 77.5672 74.2801C77.5672 73.518 77.1217 73.0138 76.2307 72.8028L75.1286 72.5449C74.7535 72.4511 74.5893 72.2987 74.5893 72.0642C74.5893 71.6538 75.0114 71.4663 75.4217 71.4663C75.961 71.4663 76.2659 71.7007 76.3714 72.0407H77.5203C77.3445 71.0911 76.6528 70.5049 75.4335 70.5049C74.2962 70.5049 73.4638 71.1966 73.4638 72.1345C73.4638 72.9904 74.0148 73.389 74.7535 73.5649L75.8321 73.8228C76.2659 73.9283 76.4417 74.0807 76.4417 74.3621C76.4417 74.7725 76.09 74.9835 75.5507 74.9835C75.0348 74.9835 74.6479 74.7607 74.519 74.3269H73.3231ZM83.297 73.2249C83.297 71.6304 82.2887 70.5049 80.8232 70.5049C79.3576 70.5049 78.3494 71.6304 78.3494 73.2249C78.3494 74.8194 79.3576 75.9449 80.8232 75.9449C82.2887 75.9449 83.297 74.8194 83.297 73.2249ZM82.1245 73.2249C82.1245 74.2097 81.6673 74.9366 80.8232 74.9366C79.979 74.9366 79.5218 74.2097 79.5218 73.2249C79.5218 72.2401 79.979 71.5132 80.8232 71.5132C81.6673 71.5132 82.1245 72.2401 82.1245 73.2249ZM84.3917 75.8276H85.5641V72.4042C85.6931 71.8883 86.1503 71.5718 86.6545 71.5718C87.3227 71.5718 87.6393 71.9938 87.6393 72.6387V75.8276H88.8117V72.4394C88.8117 71.2904 88.1551 70.5049 86.971 70.5049C86.3614 70.5049 85.8455 70.7863 85.5641 71.1145V70.6221H84.3917V75.8276ZM94.2062 75.8276V72.4159C94.2062 71.2318 93.4324 70.5049 92.1193 70.5049C91.0524 70.5049 90.2317 71.1732 90.0793 72.0642H91.2048C91.3338 71.7007 91.6269 71.5014 92.0958 71.5014C92.7641 71.5014 93.0924 71.9118 93.0924 72.4394V72.8614C92.8814 72.709 92.3538 72.5449 91.8848 72.5449C90.7358 72.5449 89.8565 73.2366 89.8565 74.2214C89.8565 75.2883 90.7358 75.9214 91.8027 75.9214C92.3889 75.9214 92.9165 75.7104 93.0924 75.5345V75.8276H94.2062ZM93.0924 74.4442C92.9634 74.7725 92.4945 74.9718 92.0255 74.9718C91.4979 74.9718 90.9469 74.749 90.9469 74.2214C90.9469 73.7056 91.4979 73.4828 92.0255 73.4828C92.4945 73.4828 92.9634 73.6821 93.0924 74.0104V74.4442ZM95.2257 74.3269C95.3781 75.3352 96.2223 75.9449 97.4416 75.9449C98.614 75.9449 99.4699 75.3118 99.4699 74.2801C99.4699 73.518 99.0243 73.0138 98.1333 72.8028L97.0312 72.5449C96.6561 72.4511 96.4919 72.2987 96.4919 72.0642C96.4919 71.6538 96.914 71.4663 97.3243 71.4663C97.8637 71.4663 98.1685 71.7007 98.274 72.0407H99.423C99.2471 71.0911 98.5554 70.5049 97.3361 70.5049C96.1988 70.5049 95.3664 71.1966 95.3664 72.1345C95.3664 72.9904 95.9174 73.389 96.6561 73.5649L97.7347 73.8228C98.1685 73.9283 98.3443 74.0807 98.3443 74.3621C98.3443 74.7725 97.9926 74.9835 97.4533 74.9835C96.9374 74.9835 96.5506 74.7607 96.4216 74.3269H95.2257Z" fill="white" fill-opacity="0.89"/>
<path d="M100.311 80.2414H33.3105V81.4138H100.311V80.2414Z" fill="#00D856" mask="url(#path-2-inside-1_542_5921)"/>
</svg>
