<svg width="101" height="102" viewBox="0 0 101 102" fill="none" xmlns="http://www.w3.org/2000/svg">
<path d="M23.7695 64.852C36.634 64.852 45.4943 53.7766 45.4943 37.845C45.4943 21.9135 36.634 10.8381 23.7695 10.8381C10.905 10.8381 2.12988 21.9135 2.12988 37.845C2.12988 53.7766 10.905 64.852 23.7695 64.852ZM23.7695 22.8506C29.8184 22.8506 32.2039 29.7514 32.2039 37.845C32.2039 45.9386 29.8184 52.8394 23.7695 52.8394C17.7206 52.8394 15.3352 45.9386 15.3352 37.845C15.3352 29.7514 17.7206 22.8506 23.7695 22.8506ZM79.2823 40.2305C83.2865 40.2305 85.5868 43.0419 85.5868 46.7905C85.5868 50.7095 83.1161 53.3506 79.5379 53.3506C75.5337 53.3506 73.2334 50.8799 72.8075 47.2165H59.517C60.2837 57.8659 67.6105 64.852 79.4527 64.852C90.7837 64.852 98.2809 57.6103 98.2809 46.7905C98.2809 36.4819 91.7208 29.3255 81.1566 29.3255C77.834 29.3255 74.8521 30.2626 73.2334 31.1998V23.3618H94.4471V11.69H62.2432V42.9567H73.2334C74.7669 41.4232 76.7264 40.2305 79.2823 40.2305Z" fill="white" fill-opacity="0.2"/>
<path d="M61.545 73.8345C61.803 75.1711 62.8933 75.9449 64.4174 75.9449C65.9064 75.9449 66.985 75.1125 66.985 73.7642C66.985 72.6856 66.2464 72.029 65.1209 71.7711L63.8664 71.478C63.2216 71.3256 62.9168 71.0207 62.9168 70.54C62.9168 69.9421 63.4443 69.5435 64.2181 69.5435C65.074 69.5435 65.5312 69.9656 65.7188 70.5049H66.9381C66.6802 69.309 65.7657 68.5118 64.2064 68.5118C62.7526 68.5118 61.7561 69.4263 61.7561 70.6456C61.7561 71.8063 62.5533 72.3456 63.5499 72.5801L64.7692 72.8732C65.5195 73.049 65.8126 73.3421 65.8126 73.8463C65.8126 74.5145 65.2616 74.9132 64.4174 74.9132C63.6319 74.9132 63.0223 74.5732 62.7878 73.8345H61.545ZM72.7584 73.2249C72.7584 71.6304 71.7502 70.5049 70.2846 70.5049C68.8191 70.5049 67.8108 71.6304 67.8108 73.2249C67.8108 74.8194 68.8191 75.9449 70.2846 75.9449C71.7502 75.9449 72.7584 74.8194 72.7584 73.2249ZM71.586 73.2249C71.586 74.2097 71.1288 74.9366 70.2846 74.9366C69.4405 74.9366 68.9833 74.2097 68.9833 73.2249C68.9833 72.2401 69.4405 71.5132 70.2846 71.5132C71.1288 71.5132 71.586 72.2401 71.586 73.2249ZM75.0256 68.2069H73.8532V75.8276H75.0256V68.2069ZM80.8013 70.6221H79.6289V74.0456C79.4999 74.5614 79.0544 74.878 78.5503 74.878C77.882 74.878 77.5771 74.4559 77.5771 73.8111V70.6221H76.4047V74.0104C76.4047 75.1594 77.0496 75.9449 78.2337 75.9449C78.8434 75.9449 79.3475 75.6635 79.6289 75.3352V75.8276H80.8013V70.6221ZM82.5267 74.4207C82.5267 75.4525 83.1832 75.9449 84.1094 75.9449C84.4729 75.9449 84.7894 75.8745 84.9887 75.7573V74.6904C84.8246 74.8076 84.5549 74.9014 84.3205 74.9014C83.9336 74.9014 83.6991 74.7138 83.6991 74.2918V71.5952H84.8715V70.6221H83.6991V69.2269H82.5267V70.6221H81.706V71.5952H82.5267V74.4207ZM87.3565 70.6221H86.1841V75.8276H87.3565V70.6221ZM87.4972 69.0511C87.4972 68.6525 87.1572 68.3359 86.7703 68.3359C86.3834 68.3359 86.0434 68.6525 86.0434 69.0511C86.0434 69.4497 86.3834 69.7663 86.7703 69.7663C87.1572 69.7663 87.4972 69.4497 87.4972 69.0511ZM93.3902 73.2249C93.3902 71.6304 92.3819 70.5049 90.9164 70.5049C89.4509 70.5049 88.4426 71.6304 88.4426 73.2249C88.4426 74.8194 89.4509 75.9449 90.9164 75.9449C92.3819 75.9449 93.3902 74.8194 93.3902 73.2249ZM92.2178 73.2249C92.2178 74.2097 91.7605 74.9366 90.9164 74.9366C90.0722 74.9366 89.615 74.2097 89.615 73.2249C89.615 72.2401 90.0722 71.5132 90.9164 71.5132C91.7605 71.5132 92.2178 72.2401 92.2178 73.2249ZM94.4849 75.8276H95.6573V72.4042C95.7863 71.8883 96.2435 71.5718 96.7477 71.5718C97.4159 71.5718 97.7325 71.9938 97.7325 72.6387V75.8276H98.9049V72.4394C98.9049 71.2904 98.2484 70.5049 97.0642 70.5049C96.4546 70.5049 95.9387 70.7863 95.6573 71.1145V70.6221H94.4849V75.8276Z" fill="white" fill-opacity="0.89"/>
<path d="M100.311 80.2414H61.3105V81.4138H100.311V80.2414Z" fill="#00D856" mask="url(#path-2-inside-1_542_5926)"/>
</svg>
