<svg width="102" height="102" viewBox="0 0 102 102" fill="none" xmlns="http://www.w3.org/2000/svg">
<path d="M23.7695 64.852C36.634 64.852 45.4943 53.7766 45.4943 37.845C45.4943 21.9135 36.634 10.8381 23.7695 10.8381C10.905 10.8381 2.12988 21.9135 2.12988 37.845C2.12988 53.7766 10.905 64.852 23.7695 64.852ZM23.7695 22.8506C29.8184 22.8506 32.2039 29.7514 32.2039 37.845C32.2039 45.9386 29.8184 52.8394 23.7695 52.8394C17.7206 52.8394 15.3352 45.9386 15.3352 37.845C15.3352 29.7514 17.7206 22.8506 23.7695 22.8506ZM73.3186 46.7905C73.3186 42.5308 76.2153 39.6341 80.3898 39.6341C84.4792 39.6341 87.5463 42.5308 87.5463 46.7905C87.5463 50.9651 84.4792 53.8617 80.3898 53.8617C76.2153 53.8617 73.3186 50.9651 73.3186 46.7905ZM99.3032 25.9177C97.5993 16.7166 91.2097 10.8381 80.8158 10.8381C67.6105 10.8381 59.9429 22.6802 59.9429 39.0377C59.9429 45.9386 61.2209 51.5615 64.2879 56.162C67.7809 61.6997 73.5742 64.852 80.3046 64.852C92.3172 64.852 99.7292 56.9288 99.7292 46.4497C99.7292 37.0783 93.084 29.4959 82.4345 29.4959C77.9192 29.4959 74.341 31.1998 72.8075 33.4149V32.9889C72.8926 27.5364 75.8745 21.9987 80.901 21.9987C83.8829 21.9987 85.672 23.6174 86.4387 25.9177H99.3032Z" fill="white" fill-opacity="0.2"/>
<path d="M57.8747 75.9449C59.5981 75.9449 60.7588 74.9366 60.7588 72.9669V68.629H59.5395V72.8263C59.5395 74.2097 58.9533 74.8545 57.8747 74.8545C56.7961 74.8545 56.2099 74.2097 56.2099 72.8263V68.629H54.9905V72.9552C54.9905 74.9366 56.163 75.9449 57.8747 75.9449ZM61.8069 74.3269C61.9594 75.3352 62.8035 75.9449 64.0228 75.9449C65.1952 75.9449 66.0511 75.3118 66.0511 74.2801C66.0511 73.518 65.6056 73.0138 64.7145 72.8028L63.6125 72.5449C63.2373 72.4511 63.0731 72.2987 63.0731 72.0642C63.0731 71.6538 63.4952 71.4663 63.9056 71.4663C64.4449 71.4663 64.7497 71.7007 64.8552 72.0407H66.0042C65.8283 71.0911 65.1366 70.5049 63.9173 70.5049C62.78 70.5049 61.9476 71.1966 61.9476 72.1345C61.9476 72.9904 62.4987 73.389 63.2373 73.5649L64.3159 73.8228C64.7497 73.9283 64.9256 74.0807 64.9256 74.3621C64.9256 74.7725 64.5738 74.9835 64.0345 74.9835C63.5187 74.9835 63.1318 74.7607 63.0028 74.3269H61.8069ZM70.4091 74.2097C70.2801 74.7138 69.858 74.9601 69.2953 74.9601C68.5449 74.9601 68.0173 74.409 67.9822 73.4945H71.5346V73.0725C71.5346 71.5483 70.7373 70.5049 69.2718 70.5049C67.8532 70.5049 66.8332 71.6773 66.8332 73.2366C66.8332 74.8428 67.8415 75.9449 69.2953 75.9449C70.5498 75.9449 71.3118 75.2414 71.4877 74.2097H70.4091ZM69.2836 71.4897C69.9987 71.4897 70.3622 72.0056 70.3739 72.6387H68.0173C68.158 71.8883 68.6387 71.4897 69.2836 71.4897ZM75.5198 70.5987C75.4377 70.5518 75.2032 70.5049 74.9453 70.5049C74.4412 70.5049 73.9839 70.7745 73.7846 71.1614V70.6221H72.6122V75.8276H73.7846V72.4628C73.9019 71.9001 74.3474 71.6304 74.8281 71.6304C75.0743 71.6304 75.3557 71.689 75.5198 71.8063V70.5987ZM80.4738 75.8276V72.9083H83.6276V71.8414H80.4738V69.7076H83.8503V68.629H79.2545V75.8276H80.4738ZM86.1614 68.2069H84.989V75.8276H86.1614V68.2069ZM92.195 73.2249C92.195 71.6304 91.1867 70.5049 89.7212 70.5049C88.2557 70.5049 87.2474 71.6304 87.2474 73.2249C87.2474 74.8194 88.2557 75.9449 89.7212 75.9449C91.1867 75.9449 92.195 74.8194 92.195 73.2249ZM91.0226 73.2249C91.0226 74.2097 90.5653 74.9366 89.7212 74.9366C88.8771 74.9366 88.4198 74.2097 88.4198 73.2249C88.4198 72.2401 88.8771 71.5132 89.7212 71.5132C90.5653 71.5132 91.0226 72.2401 91.0226 73.2249ZM96.9359 70.6221H95.869L94.9546 74.3152L93.9463 70.6221H92.7739L94.2863 75.8276H95.4587L96.3849 72.2049L97.3111 75.8276H98.4835L99.9959 70.6221H98.8587L97.8504 74.3152L96.9359 70.6221Z" fill="white" fill-opacity="0.89"/>
<path d="M100.311 80.2414H54.3105V81.4138H100.311V80.2414Z" fill="#00D856" mask="url(#path-2-inside-1_542_6070)"/>
</svg>
