<svg width="101" height="102" viewBox="0 0 101 102" fill="none" xmlns="http://www.w3.org/2000/svg">
<path d="M23.7695 64.852C36.634 64.852 45.4943 53.7766 45.4943 37.845C45.4943 21.9135 36.634 10.8381 23.7695 10.8381C10.905 10.8381 2.12988 21.9135 2.12988 37.845C2.12988 53.7766 10.905 64.852 23.7695 64.852ZM23.7695 22.8506C29.8184 22.8506 32.2039 29.7514 32.2039 37.845C32.2039 45.9386 29.8184 52.8394 23.7695 52.8394C17.7206 52.8394 15.3352 45.9386 15.3352 37.845C15.3352 29.7514 17.7206 22.8506 23.7695 22.8506ZM94.8058 20.8911V11.69H58.1718V23.447H80.4078L65.1578 64H78.9595L94.8058 20.8911Z" fill="white" fill-opacity="0.2"/>
<path d="M26.1078 75.8276H30.7857V74.7373H27.3271V68.629H26.1078V75.8276ZM36.4837 73.2249C36.4837 71.6304 35.4754 70.5049 34.0099 70.5049C32.5443 70.5049 31.5361 71.6304 31.5361 73.2249C31.5361 74.8194 32.5443 75.9449 34.0099 75.9449C35.4754 75.9449 36.4837 74.8194 36.4837 73.2249ZM35.3112 73.2249C35.3112 74.2097 34.854 74.9366 34.0099 74.9366C33.1657 74.9366 32.7085 74.2097 32.7085 73.2249C32.7085 72.2401 33.1657 71.5132 34.0099 71.5132C34.854 71.5132 35.3112 72.2401 35.3112 73.2249ZM37.4922 73.2835H40.3177V72.2166H37.4922V73.2835ZM42.8066 75.8276V72.9083H45.9604V71.8414H42.8066V69.7076H46.1832V68.629H41.5873V75.8276H42.8066ZM48.4942 70.6221H47.3218V75.8276H48.4942V70.6221ZM48.6349 69.0511C48.6349 68.6525 48.2949 68.3359 47.908 68.3359C47.5211 68.3359 47.1811 68.6525 47.1811 69.0511C47.1811 69.4497 47.5211 69.7663 47.908 69.7663C48.2949 69.7663 48.6349 69.4497 48.6349 69.0511ZM55.8726 68.629L54.5009 73.9283L53.1995 68.629H52.0037L53.8561 75.8276H54.9699L56.3533 70.6807L57.7133 75.8276H58.8388L60.6912 68.629H59.5188L58.2175 73.9283L56.8575 68.629H55.8726ZM62.7944 70.6221H61.622V75.8276H62.7944V70.6221ZM62.9351 69.0511C62.9351 68.6525 62.5951 68.3359 62.2082 68.3359C61.8213 68.3359 61.4813 68.6525 61.4813 69.0511C61.4813 69.4497 61.8213 69.7663 62.2082 69.7663C62.5951 69.7663 62.9351 69.4497 62.9351 69.0511ZM67.1515 70.5987C67.0695 70.5518 66.835 70.5049 66.577 70.5049C66.0729 70.5049 65.6157 70.7745 65.4164 71.1614V70.6221H64.2439V75.8276H65.4164V72.4628C65.5336 71.9001 65.9791 71.6304 66.4598 71.6304C66.706 71.6304 66.9874 71.689 67.1515 71.8063V70.5987ZM71.269 74.2097C71.14 74.7138 70.7179 74.9601 70.1552 74.9601C69.4048 74.9601 68.8773 74.409 68.8421 73.4945H72.3945V73.0725C72.3945 71.5483 71.5973 70.5049 70.1317 70.5049C68.7131 70.5049 67.6931 71.6773 67.6931 73.2366C67.6931 74.8428 68.7014 75.9449 70.1552 75.9449C71.4097 75.9449 72.1717 75.2414 72.3476 74.2097H71.269ZM70.1435 71.4897C70.8586 71.4897 71.2221 72.0056 71.2338 72.6387H68.8773C69.0179 71.8883 69.4986 71.4897 70.1435 71.4897ZM76.3445 68.2304C76.1335 68.1366 75.9107 68.0897 75.5707 68.0897C74.5976 68.0897 73.859 68.6994 73.859 69.8132V70.6221H72.9563V71.5952H73.859V75.8276H75.008V71.5952H76.1452V70.6221H75.008V69.8952C75.008 69.3794 75.3011 69.098 75.77 69.098C75.9576 69.098 76.1687 69.1449 76.3445 69.2621V68.2304ZM80.1007 70.5987C80.0187 70.5518 79.7842 70.5049 79.5263 70.5049C79.0221 70.5049 78.5649 70.7745 78.3656 71.1614V70.6221H77.1932V75.8276H78.3656V72.4628C78.4828 71.9001 78.9283 71.6304 79.409 71.6304C79.6552 71.6304 79.9366 71.689 80.1007 71.8063V70.5987ZM85.0154 75.8276V72.4159C85.0154 71.2318 84.2417 70.5049 82.9285 70.5049C81.8617 70.5049 81.041 71.1732 80.8885 72.0642H82.0141C82.143 71.7007 82.4361 71.5014 82.9051 71.5014C83.5734 71.5014 83.9017 71.9118 83.9017 72.4394V72.8614C83.6906 72.709 83.163 72.5449 82.6941 72.5449C81.5451 72.5449 80.6658 73.2366 80.6658 74.2214C80.6658 75.2883 81.5451 75.9214 82.612 75.9214C83.1982 75.9214 83.7258 75.7104 83.9017 75.5345V75.8276H85.0154ZM83.9017 74.4442C83.7727 74.7725 83.3037 74.9718 82.8348 74.9718C82.3072 74.9718 81.7561 74.749 81.7561 74.2214C81.7561 73.7056 82.3072 73.4828 82.8348 73.4828C83.3037 73.4828 83.7727 73.6821 83.9017 74.0104V74.4442ZM90.244 71.1966C89.9743 70.798 89.4584 70.5049 88.8722 70.5049C88.286 70.5049 87.8171 70.7276 87.5708 71.0559V70.6221H86.3984V75.8276H87.5708V72.3338C87.6764 71.818 88.075 71.5601 88.4971 71.5601C89.0715 71.5601 89.3529 71.9821 89.3529 72.6269V75.8276H90.5253V72.3338C90.6308 71.818 91.0295 71.5601 91.4515 71.5601C92.026 71.5601 92.3074 71.9821 92.3074 72.6269V75.8276H93.4798V72.4394C93.4798 71.2552 92.8584 70.5049 91.7915 70.5049C91.0881 70.5049 90.6074 70.7745 90.244 71.1966ZM98.0719 74.2097C97.943 74.7138 97.5209 74.9601 96.9581 74.9601C96.2078 74.9601 95.6802 74.409 95.645 73.4945H99.1974V73.0725C99.1974 71.5483 98.4002 70.5049 96.9347 70.5049C95.5161 70.5049 94.4961 71.6773 94.4961 73.2366C94.4961 74.8428 95.5043 75.9449 96.9581 75.9449C98.2126 75.9449 98.9747 75.2414 99.1505 74.2097H98.0719ZM96.9464 71.4897C97.6616 71.4897 98.025 72.0056 98.0368 72.6387H95.6802C95.8209 71.8883 96.3016 71.4897 96.9464 71.4897Z" fill="white" fill-opacity="0.89"/>
<path d="M100.311 80.2414H25.3105V81.4138H100.311V80.2414Z" fill="#00D856" mask="url(#path-2-inside-1_542_6213)"/>
</svg>
