<svg width="102" height="102" viewBox="0 0 102 102" fill="none" xmlns="http://www.w3.org/2000/svg">
<path d="M23.7695 64.852C36.634 64.852 45.4943 53.7766 45.4943 37.845C45.4943 21.9135 36.634 10.8381 23.7695 10.8381C10.905 10.8381 2.12988 21.9135 2.12988 37.845C2.12988 53.7766 10.905 64.852 23.7695 64.852ZM23.7695 22.8506C29.8184 22.8506 32.2039 29.7514 32.2039 37.845C32.2039 45.9386 29.8184 52.8394 23.7695 52.8394C17.7206 52.8394 15.3352 45.9386 15.3352 37.845C15.3352 29.7514 17.7206 22.8506 23.7695 22.8506ZM79.4527 54.2877C75.7041 54.2877 72.8926 51.9874 72.8926 48.4944C72.8926 44.9162 75.7041 42.7012 79.4527 42.7012C83.2865 42.7012 86.0979 44.9162 86.0979 48.4944C86.0979 51.9874 83.2865 54.2877 79.4527 54.2877ZM79.4527 31.7961C76.2153 31.7961 73.5742 29.6663 73.5742 26.514C73.5742 23.1914 76.2153 21.0615 79.4527 21.0615C82.7753 21.0615 85.3312 23.1914 85.3312 26.514C85.3312 29.6663 82.7753 31.7961 79.4527 31.7961ZM79.4527 64.852C90.3577 64.852 99.218 59.1439 99.218 49.5168C99.218 43.3827 95.4694 39.0377 90.7837 37.419C94.9583 35.3743 97.5141 31.1998 97.5141 26.088C97.5141 16.2054 89.0798 10.8381 79.4527 10.8381C69.9108 10.8381 61.3913 16.2054 61.3913 26.088C61.3913 31.1998 63.9471 35.3743 68.2069 37.419C63.436 39.0377 59.7726 43.3827 59.7726 49.5168C59.7726 59.1439 68.5477 64.852 79.4527 64.852Z" fill="white" fill-opacity="0.2"/>
<path d="M41.3271 68.629H40.1078V75.8276H41.3271V73.5883L42.0657 72.7442L44.434 75.8276H45.9581L42.945 71.9001L45.8526 68.629H44.3168L41.3271 72.0759V68.629ZM49.7187 74.2097C49.5898 74.7138 49.1677 74.9601 48.6049 74.9601C47.8546 74.9601 47.327 74.409 47.2918 73.4945H50.8443V73.0725C50.8443 71.5483 50.047 70.5049 48.5815 70.5049C47.1629 70.5049 46.1429 71.6773 46.1429 73.2366C46.1429 74.8428 47.1512 75.9449 48.6049 75.9449C49.8594 75.9449 50.6215 75.2414 50.7974 74.2097H49.7187ZM48.5932 71.4897C49.3084 71.4897 49.6718 72.0056 49.6836 72.6387H47.327C47.4677 71.8883 47.9484 71.4897 48.5932 71.4897ZM53.7067 77.8207L56.4501 70.6221H55.2426L53.906 74.4559L52.546 70.6221H51.2915L53.3081 75.9683L52.5694 77.8207H53.7067ZM61.2604 75.8276V72.9083H64.4142V71.8414H61.2604V69.7076H64.637V68.629H60.0411V75.8276H61.2604ZM68.8163 74.2097C68.6873 74.7138 68.2652 74.9601 67.7025 74.9601C66.9521 74.9601 66.4245 74.409 66.3894 73.4945H69.9418V73.0725C69.9418 71.5483 69.1445 70.5049 67.679 70.5049C66.2604 70.5049 65.2404 71.6773 65.2404 73.2366C65.2404 74.8428 66.2487 75.9449 67.7025 75.9449C68.957 75.9449 69.719 75.2414 69.8949 74.2097H68.8163ZM67.6907 71.4897C68.4059 71.4897 68.7694 72.0056 68.7811 72.6387H66.4245C66.5652 71.8883 67.0459 71.4897 67.6907 71.4897ZM75.029 75.8276V72.4159C75.029 71.2318 74.2553 70.5049 72.9422 70.5049C71.8753 70.5049 71.0546 71.1732 70.9022 72.0642H72.0277C72.1566 71.7007 72.4497 71.5014 72.9187 71.5014C73.587 71.5014 73.9153 71.9118 73.9153 72.4394V72.8614C73.7042 72.709 73.1766 72.5449 72.7077 72.5449C71.5587 72.5449 70.6794 73.2366 70.6794 74.2214C70.6794 75.2883 71.5587 75.9214 72.6256 75.9214C73.2118 75.9214 73.7394 75.7104 73.9153 75.5345V75.8276H75.029ZM73.9153 74.4442C73.7863 74.7725 73.3173 74.9718 72.8484 74.9718C72.3208 74.9718 71.7697 74.749 71.7697 74.2214C71.7697 73.7056 72.3208 73.4828 72.8484 73.4828C73.3173 73.4828 73.7863 73.6821 73.9153 74.0104V74.4442ZM76.6244 74.4207C76.6244 75.4525 77.281 75.9449 78.2072 75.9449C78.5707 75.9449 78.8872 75.8745 79.0865 75.7573V74.6904C78.9224 74.8076 78.6527 74.9014 78.4182 74.9014C78.0313 74.9014 77.7969 74.7138 77.7969 74.2918V71.5952H78.9693V70.6221H77.7969V69.2269H76.6244V70.6221H75.8038V71.5952H76.6244V74.4207ZM84.6081 70.6221H83.4357V74.0456C83.3067 74.5614 82.8612 74.878 82.3571 74.878C81.6888 74.878 81.384 74.4559 81.384 73.8111V70.6221H80.2116V74.0104C80.2116 75.1594 80.8564 75.9449 82.0405 75.9449C82.6502 75.9449 83.1543 75.6635 83.4357 75.3352V75.8276H84.6081V70.6221ZM88.9714 70.5987C88.8894 70.5518 88.6549 70.5049 88.3969 70.5049C87.8928 70.5049 87.4356 70.7745 87.2363 71.1614V70.6221H86.0638V75.8276H87.2363V72.4628C87.3535 71.9001 87.799 71.6304 88.2797 71.6304C88.5259 71.6304 88.8073 71.689 88.9714 71.8063V70.5987ZM93.0889 74.2097C92.9599 74.7138 92.5379 74.9601 91.9751 74.9601C91.2248 74.9601 90.6972 74.409 90.662 73.4945H94.2144V73.0725C94.2144 71.5483 93.4172 70.5049 91.9517 70.5049C90.533 70.5049 89.513 71.6773 89.513 73.2366C89.513 74.8428 90.5213 75.9449 91.9751 75.9449C93.2296 75.9449 93.9917 75.2414 94.1675 74.2097H93.0889ZM91.9634 71.4897C92.6785 71.4897 93.042 72.0056 93.0537 72.6387H90.6972C90.8379 71.8883 91.3185 71.4897 91.9634 71.4897ZM94.9286 74.3269C95.081 75.3352 95.9251 75.9449 97.1444 75.9449C98.3169 75.9449 99.1727 75.3118 99.1727 74.2801C99.1727 73.518 98.7272 73.0138 97.8362 72.8028L96.7341 72.5449C96.3589 72.4511 96.1948 72.2987 96.1948 72.0642C96.1948 71.6538 96.6169 71.4663 97.0272 71.4663C97.5665 71.4663 97.8713 71.7007 97.9769 72.0407H99.1258C98.95 71.0911 98.2582 70.5049 97.0389 70.5049C95.9017 70.5049 95.0693 71.1966 95.0693 72.1345C95.0693 72.9904 95.6203 73.389 96.3589 73.5649L97.4375 73.8228C97.8713 73.9283 98.0472 74.0807 98.0472 74.3621C98.0472 74.7725 97.6955 74.9835 97.1562 74.9835C96.6403 74.9835 96.2534 74.7607 96.1244 74.3269H94.9286Z" fill="white" fill-opacity="0.89"/>
<path d="M100.311 80.2414H39.3105V81.4138H100.311V80.2414Z" fill="#00D856" mask="url(#path-2-inside-1_542_7591)"/>
</svg>
