<svg width="174" height="174" viewBox="0 0 174 174" fill="none" xmlns="http://www.w3.org/2000/svg">
<path d="M40.548 110.453C62.4933 110.453 77.608 91.56 77.608 64.3827C77.608 37.2053 62.4933 18.312 40.548 18.312C18.6027 18.312 3.63333 37.2053 3.63333 64.3827C3.63333 91.56 18.6027 110.453 40.548 110.453ZM40.548 38.804C50.8667 38.804 54.936 50.576 54.936 64.3827C54.936 78.1893 50.8667 89.9613 40.548 89.9613C30.2293 89.9613 26.16 78.1893 26.16 64.3827C26.16 50.576 30.2293 38.804 40.548 38.804ZM147.454 49.1227C147.454 56.3893 142.513 61.3307 135.392 61.3307C128.416 61.3307 123.184 56.3893 123.184 49.1227C123.184 42.0013 128.416 37.06 135.392 37.06C142.513 37.06 147.454 42.0013 147.454 49.1227ZM103.128 84.7293C106.034 100.425 116.934 110.453 134.665 110.453C157.192 110.453 170.272 90.252 170.272 62.348C170.272 50.576 168.092 40.984 162.86 33.136C156.901 23.6893 147.018 18.312 135.537 18.312C115.045 18.312 102.401 31.828 102.401 49.704C102.401 65.6907 113.737 78.6253 131.904 78.6253C139.606 78.6253 145.71 75.7187 148.326 71.94V72.6667C148.181 81.968 143.094 91.4147 134.52 91.4147C129.433 91.4147 126.381 88.6533 125.073 84.7293H103.128Z" fill="white" fill-opacity="0.2"/>
<path d="M98.6078 126.42C101.148 126.42 102.808 125.08 102.808 122.58C102.808 120.04 101.148 118.72 98.6078 118.72H93.8678V131H95.9478V126.42H98.6078ZM100.748 122.58C100.748 123.76 100.008 124.62 98.5678 124.62H95.9478V120.52H98.5678C100.008 120.52 100.748 121.36 100.748 122.58ZM109.606 122.08C109.466 122 109.066 121.92 108.626 121.92C107.766 121.92 106.986 122.38 106.646 123.04V122.12H104.646V131H106.646V125.26C106.846 124.3 107.606 123.84 108.426 123.84C108.846 123.84 109.326 123.94 109.606 124.14V122.08ZM118.97 126.56C118.97 123.84 117.25 121.92 114.75 121.92C112.25 121.92 110.53 123.84 110.53 126.56C110.53 129.28 112.25 131.2 114.75 131.2C117.25 131.2 118.97 129.28 118.97 126.56ZM116.97 126.56C116.97 128.24 116.19 129.48 114.75 129.48C113.31 129.48 112.53 128.24 112.53 126.56C112.53 124.88 113.31 123.64 114.75 123.64C116.19 123.64 116.97 124.88 116.97 126.56ZM121.298 128.6C121.298 130.36 122.418 131.2 123.998 131.2C124.618 131.2 125.158 131.08 125.498 130.88V129.06C125.218 129.26 124.758 129.42 124.358 129.42C123.698 129.42 123.298 129.1 123.298 128.38V123.78H125.298V122.12H123.298V119.74H121.298V122.12H119.898V123.78H121.298V128.6ZM135.259 126.56C135.259 123.84 133.539 121.92 131.039 121.92C128.539 121.92 126.819 123.84 126.819 126.56C126.819 129.28 128.539 131.2 131.039 131.2C133.539 131.2 135.259 129.28 135.259 126.56ZM133.259 126.56C133.259 128.24 132.479 129.48 131.039 129.48C129.599 129.48 128.819 128.24 128.819 126.56C128.819 124.88 129.599 123.64 131.039 123.64C132.479 123.64 133.259 124.88 133.259 126.56ZM137.587 128.6C137.587 130.36 138.707 131.2 140.287 131.2C140.907 131.2 141.447 131.08 141.787 130.88V129.06C141.507 129.26 141.047 129.42 140.647 129.42C139.987 129.42 139.587 129.1 139.587 128.38V123.78H141.587V122.12H139.587V119.74H137.587V122.12H136.187V123.78H137.587V128.6ZM149.208 128.24C148.988 129.1 148.268 129.52 147.308 129.52C146.028 129.52 145.128 128.58 145.068 127.02H151.128V126.3C151.128 123.7 149.768 121.92 147.268 121.92C144.848 121.92 143.108 123.92 143.108 126.58C143.108 129.32 144.828 131.2 147.308 131.2C149.448 131.2 150.748 130 151.048 128.24H149.208ZM147.288 123.6C148.508 123.6 149.128 124.48 149.148 125.56H145.128C145.368 124.28 146.188 123.6 147.288 123.6ZM152.347 128.44C152.607 130.16 154.047 131.2 156.127 131.2C158.127 131.2 159.587 130.12 159.587 128.36C159.587 127.06 158.827 126.2 157.307 125.84L155.427 125.4C154.787 125.24 154.507 124.98 154.507 124.58C154.507 123.88 155.227 123.56 155.927 123.56C156.847 123.56 157.367 123.96 157.547 124.54H159.507C159.207 122.92 158.027 121.92 155.947 121.92C154.007 121.92 152.587 123.1 152.587 124.7C152.587 126.16 153.527 126.84 154.787 127.14L156.627 127.58C157.367 127.76 157.667 128.02 157.667 128.5C157.667 129.2 157.067 129.56 156.147 129.56C155.267 129.56 154.607 129.18 154.387 128.44H152.347ZM162.001 128.6C162.001 130.36 163.121 131.2 164.701 131.2C165.321 131.2 165.861 131.08 166.201 130.88V129.06C165.921 129.26 165.461 129.42 165.061 129.42C164.401 129.42 164.001 129.1 164.001 128.38V123.78H166.001V122.12H164.001V119.74H162.001V122.12H160.601V123.78H162.001V128.6Z" fill="white" fill-opacity="0.89"/>
<path d="M167 139H92V141H167V139Z" fill="#00D856" mask="url(#path-2-inside-1_823_4961)"/>
</svg>
