<svg width="26" height="27" viewBox="0 0 26 27" fill="none" xmlns="http://www.w3.org/2000/svg">
<g clip-path="url(#clip0_1280_1154)">
<path d="M0 13.6313C0 11.274 0.580684 9.09869 1.742 7.10535C2.90334 5.11201 4.48068 3.53469 6.474 2.37335C8.46734 1.21201 10.6427 0.631348 13 0.631348C15.3573 0.631348 17.5327 1.21201 19.526 2.37335C21.5193 3.53469 23.0967 5.11201 24.258 7.10535C25.4193 9.09869 26 11.274 26 13.6313C26 15.9887 25.4193 18.164 24.258 20.1573C23.0967 22.1507 21.5193 23.728 19.526 24.8893C17.5327 26.0507 15.3573 26.6313 13 26.6313C10.6427 26.6313 8.46734 26.0507 6.474 24.8893C4.48068 23.728 2.90334 22.1507 1.742 20.1573C0.580684 18.164 0 15.9887 0 13.6313ZM2.158 13.6313C2.158 16.3353 3.068 18.7187 4.888 20.7813C5.72 19.152 7.03734 17.6007 8.84 16.1273C10.6427 14.654 12.402 13.7267 14.118 13.3453C13.858 12.7387 13.6067 12.1927 13.364 11.7073C10.3827 12.6607 7.15868 13.1373 3.692 13.1373C3.016 13.1373 2.51334 13.1287 2.184 13.1113C2.184 13.1807 2.17968 13.2673 2.171 13.3713C2.16234 13.4753 2.158 13.562 2.158 13.6313ZM2.496 10.9533C2.87734 10.988 3.44068 11.0053 4.186 11.0053C7.08068 11.0053 9.828 10.6153 12.428 9.83535C11.1107 7.49535 9.66334 5.54535 8.086 3.98535C6.71668 4.67869 5.54234 5.64069 4.563 6.87135C3.58368 8.10201 2.89468 9.46269 2.496 10.9533ZM6.37 22.1853C8.32868 23.7107 10.5387 24.4733 13 24.4733C14.2827 24.4733 15.5567 24.2307 16.822 23.7453C16.4753 20.7813 15.7993 17.9127 14.794 15.1393C13.1993 15.486 11.5917 16.3613 9.971 17.7653C8.35034 19.1693 7.15 20.6427 6.37 22.1853ZM10.348 3.15335C11.8733 4.73069 13.286 6.69801 14.586 9.05535C16.9433 8.06735 18.72 6.81069 19.916 5.28535C17.9053 3.62135 15.6 2.78935 13 2.78935C12.116 2.78935 11.232 2.91069 10.348 3.15335ZM15.522 10.9013C15.782 11.456 16.0767 12.158 16.406 13.0073C17.6887 12.886 19.084 12.8253 20.592 12.8253C21.6667 12.8253 22.7327 12.8513 23.79 12.9033C23.6513 10.546 22.802 8.44869 21.242 6.61135C20.1153 8.29269 18.2087 9.72269 15.522 10.9013ZM17.056 14.8273C17.94 17.3927 18.538 20.0273 18.85 22.7313C20.2193 21.8473 21.3373 20.712 22.204 19.3253C23.0707 17.9387 23.5907 16.4393 23.764 14.8273C22.4987 14.7407 21.346 14.6973 20.306 14.6973C19.3527 14.6973 18.2693 14.7407 17.056 14.8273Z" fill="#8892B0"/>
</g>
<defs>
<clipPath id="clip0_1280_1154">
<rect width="26" height="26" fill="white" transform="translate(0 0.631348)"/>
</clipPath>
</defs>
</svg>
