<svg width="24" height="24" viewBox="0 0 24 24" fill="none" xmlns="http://www.w3.org/2000/svg">
<path d="M17.5 6.5H17.51" stroke="black"/>
<mask id="path-2-inside-1_237_2" fill="white">
<path d="M9.3545 10.9283C9.66239 10.7392 9.81828 10.3964 9.81828 9.91581C9.81828 9.38398 9.61175 9.02552 9.2025 8.85218C8.8595 8.73402 8.41518 8.67492 7.88516 8.67492H4.9348V11.2079H8.16578C8.64906 11.2079 9.05049 11.1134 9.3545 10.9283ZM9.03493 9.91581C9.03493 10.097 9.00378 10.2152 8.94531 10.2507C8.76604 10.3609 8.5049 10.4161 8.16192 10.4161H5.71823V9.46671H7.88521C8.31783 9.46671 8.66859 9.51002 8.9258 9.59276C8.96478 9.61246 9.03493 9.64398 9.03493 9.91581ZM9.31948 13.1934C9.05446 13.0712 8.6764 13.0043 8.20091 13.0003H4.93485V16.0494H8.16194C8.64521 16.0494 9.02717 15.9825 9.29609 15.8485C9.79106 15.6003 10.0405 15.1198 10.0405 14.4225C10.0444 13.8316 9.80276 13.4179 9.31948 13.1934ZM5.71823 13.7922H8.20088C8.67636 13.7961 8.90241 13.8709 8.99595 13.9143C9.13626 13.9813 9.26097 14.0679 9.26097 14.4224C9.26097 14.9858 9.05051 15.0882 8.94918 15.1394C8.87512 15.1749 8.65687 15.2576 8.1619 15.2576H5.71821L5.71823 13.7922ZM18.4707 11.6688C18.1238 11.3694 17.6912 11.2158 17.1806 11.2158C16.6272 11.2158 16.1868 11.3773 15.8789 11.7003C15.571 12.0194 15.3761 12.4567 15.3021 13.0003L15.2982 13.0358H19.0592L19.0553 13.0043C19.0124 12.4173 18.8175 11.9682 18.4707 11.6688ZM16.4479 12.24C16.5142 12.173 16.6934 12.0036 17.1806 12.0036C17.4846 12.0036 17.7301 12.0824 17.9289 12.24H16.4479ZM21.9198 12.6733C21.8029 11.913 21.5418 11.2315 21.1443 10.6445C20.7779 10.093 20.3219 9.65968 19.7802 9.34452V6.20088H14.5888V9.37605C14.2731 9.56905 13.9847 9.79757 13.7158 10.0694C13.1039 10.6918 12.7024 11.4915 12.5037 12.4527C12.3594 12.24 12.1879 12.0469 11.997 11.8775C12.0194 11.8516 12.0415 11.8253 12.0632 11.7988C12.5192 11.2433 12.7492 10.5264 12.7492 9.66362C12.7492 8.84029 12.5309 8.11544 12.0983 7.50878C11.3928 6.53573 10.2314 6.02758 8.64902 6H2V18.7242H8.2515C8.85952 18.7242 9.44021 18.6691 9.97028 18.5548C10.5627 18.4288 11.0849 18.1924 11.5253 17.8497C11.9151 17.5542 12.2386 17.1879 12.4958 16.7585C12.5971 16.597 12.6868 16.4276 12.7608 16.2503C13.0181 16.8846 13.3922 17.4085 13.8911 17.8142C14.8577 18.6021 15.9879 19 17.2507 19C18.7862 19 20.01 18.5115 20.8869 17.5464C21.4677 16.9239 21.799 16.2779 21.8769 15.624L21.9276 15.1827H21.9821L21.9938 14.4343C22.0133 13.7015 21.986 13.1067 21.9198 12.6733ZM10.6251 11.9248L10.5628 11.9563L10.629 11.9799C11.1863 12.1848 11.6112 12.5118 11.8957 12.957C12.1802 13.4021 12.3244 13.9497 12.3244 14.58C12.3244 15.2339 12.1607 15.8288 11.8333 16.3527C11.6268 16.6994 11.3657 16.9909 11.0578 17.2273C10.7109 17.4951 10.29 17.6842 9.8184 17.7827C9.33899 17.8851 8.81675 17.9363 8.25942 17.9363H2.78347V6.79181H8.61797C9.95479 6.81149 10.9135 7.20938 11.467 7.97362C11.8021 8.44242 11.9697 9.00969 11.9697 9.66757C11.9697 10.3412 11.7983 10.8888 11.4631 11.2985C11.2721 11.527 10.9915 11.7357 10.6251 11.9248ZM17.1806 8.69843C16.9857 8.69843 16.7948 8.70631 16.6116 8.72601H15.3722V6.99267H19.0007V8.72601H17.7614C17.5704 8.71025 17.3755 8.69843 17.1806 8.69843ZM15.2474 14.4342C15.2825 15.2733 15.5749 15.8681 16.1205 16.2069C16.4518 16.4157 16.8532 16.5221 17.317 16.5221C17.812 16.5221 18.2173 16.3921 18.5252 16.136C18.6928 15.9982 18.8409 15.8091 18.9656 15.5727H21.1014C21.0352 16.0455 20.7741 16.53 20.318 17.0185C19.5931 17.8142 18.5642 18.2161 17.2546 18.2161C16.1751 18.2161 15.2085 17.8773 14.3861 17.2036C13.5638 16.5339 13.1467 15.423 13.1467 13.9103C13.1467 12.4921 13.5248 11.3851 14.2653 10.6288C14.8967 9.98665 15.6996 9.6124 16.6544 9.5139H17.7184C18.2134 9.56511 18.6733 9.6833 19.0903 9.87238C19.6554 10.1284 20.127 10.5381 20.4934 11.0896C20.8247 11.5742 21.0429 12.1494 21.1403 12.7915C21.1988 13.1696 21.2222 13.7093 21.2105 14.4026H15.2474V14.4342ZM18.0342 15.5215C17.8627 15.6633 17.6288 15.7303 17.317 15.7303C16.9974 15.7303 16.7441 15.6672 16.5376 15.5372C16.4362 15.4742 16.3115 15.3796 16.2102 15.1905H18.2797C18.2017 15.3402 18.12 15.4506 18.0342 15.5215Z"/>
</mask>
<path d="M9.3545 10.9283C9.66239 10.7392 9.81828 10.3964 9.81828 9.91581C9.81828 9.38398 9.61175 9.02552 9.2025 8.85218C8.8595 8.73402 8.41518 8.67492 7.88516 8.67492H4.9348V11.2079H8.16578C8.64906 11.2079 9.05049 11.1134 9.3545 10.9283ZM9.03493 9.91581C9.03493 10.097 9.00378 10.2152 8.94531 10.2507C8.76604 10.3609 8.5049 10.4161 8.16192 10.4161H5.71823V9.46671H7.88521C8.31783 9.46671 8.66859 9.51002 8.9258 9.59276C8.96478 9.61246 9.03493 9.64398 9.03493 9.91581ZM9.31948 13.1934C9.05446 13.0712 8.6764 13.0043 8.20091 13.0003H4.93485V16.0494H8.16194C8.64521 16.0494 9.02717 15.9825 9.29609 15.8485C9.79106 15.6003 10.0405 15.1198 10.0405 14.4225C10.0444 13.8316 9.80276 13.4179 9.31948 13.1934ZM5.71823 13.7922H8.20088C8.67636 13.7961 8.90241 13.8709 8.99595 13.9143C9.13626 13.9813 9.26097 14.0679 9.26097 14.4224C9.26097 14.9858 9.05051 15.0882 8.94918 15.1394C8.87512 15.1749 8.65687 15.2576 8.1619 15.2576H5.71821L5.71823 13.7922ZM18.4707 11.6688C18.1238 11.3694 17.6912 11.2158 17.1806 11.2158C16.6272 11.2158 16.1868 11.3773 15.8789 11.7003C15.571 12.0194 15.3761 12.4567 15.3021 13.0003L15.2982 13.0358H19.0592L19.0553 13.0043C19.0124 12.4173 18.8175 11.9682 18.4707 11.6688ZM16.4479 12.24C16.5142 12.173 16.6934 12.0036 17.1806 12.0036C17.4846 12.0036 17.7301 12.0824 17.9289 12.24H16.4479ZM21.9198 12.6733C21.8029 11.913 21.5418 11.2315 21.1443 10.6445C20.7779 10.093 20.3219 9.65968 19.7802 9.34452V6.20088H14.5888V9.37605C14.2731 9.56905 13.9847 9.79757 13.7158 10.0694C13.1039 10.6918 12.7024 11.4915 12.5037 12.4527C12.3594 12.24 12.1879 12.0469 11.997 11.8775C12.0194 11.8516 12.0415 11.8253 12.0632 11.7988C12.5192 11.2433 12.7492 10.5264 12.7492 9.66362C12.7492 8.84029 12.5309 8.11544 12.0983 7.50878C11.3928 6.53573 10.2314 6.02758 8.64902 6H2V18.7242H8.2515C8.85952 18.7242 9.44021 18.6691 9.97028 18.5548C10.5627 18.4288 11.0849 18.1924 11.5253 17.8497C11.9151 17.5542 12.2386 17.1879 12.4958 16.7585C12.5971 16.597 12.6868 16.4276 12.7608 16.2503C13.0181 16.8846 13.3922 17.4085 13.8911 17.8142C14.8577 18.6021 15.9879 19 17.2507 19C18.7862 19 20.01 18.5115 20.8869 17.5464C21.4677 16.9239 21.799 16.2779 21.8769 15.624L21.9276 15.1827H21.9821L21.9938 14.4343C22.0133 13.7015 21.986 13.1067 21.9198 12.6733ZM10.6251 11.9248L10.5628 11.9563L10.629 11.9799C11.1863 12.1848 11.6112 12.5118 11.8957 12.957C12.1802 13.4021 12.3244 13.9497 12.3244 14.58C12.3244 15.2339 12.1607 15.8288 11.8333 16.3527C11.6268 16.6994 11.3657 16.9909 11.0578 17.2273C10.7109 17.4951 10.29 17.6842 9.8184 17.7827C9.33899 17.8851 8.81675 17.9363 8.25942 17.9363H2.78347V6.79181H8.61797C9.95479 6.81149 10.9135 7.20938 11.467 7.97362C11.8021 8.44242 11.9697 9.00969 11.9697 9.66757C11.9697 10.3412 11.7983 10.8888 11.4631 11.2985C11.2721 11.527 10.9915 11.7357 10.6251 11.9248ZM17.1806 8.69843C16.9857 8.69843 16.7948 8.70631 16.6116 8.72601H15.3722V6.99267H19.0007V8.72601H17.7614C17.5704 8.71025 17.3755 8.69843 17.1806 8.69843ZM15.2474 14.4342C15.2825 15.2733 15.5749 15.8681 16.1205 16.2069C16.4518 16.4157 16.8532 16.5221 17.317 16.5221C17.812 16.5221 18.2173 16.3921 18.5252 16.136C18.6928 15.9982 18.8409 15.8091 18.9656 15.5727H21.1014C21.0352 16.0455 20.7741 16.53 20.318 17.0185C19.5931 17.8142 18.5642 18.2161 17.2546 18.2161C16.1751 18.2161 15.2085 17.8773 14.3861 17.2036C13.5638 16.5339 13.1467 15.423 13.1467 13.9103C13.1467 12.4921 13.5248 11.3851 14.2653 10.6288C14.8967 9.98665 15.6996 9.6124 16.6544 9.5139H17.7184C18.2134 9.56511 18.6733 9.6833 19.0903 9.87238C19.6554 10.1284 20.127 10.5381 20.4934 11.0896C20.8247 11.5742 21.0429 12.1494 21.1403 12.7915C21.1988 13.1696 21.2222 13.7093 21.2105 14.4026H15.2474V14.4342ZM18.0342 15.5215C17.8627 15.6633 17.6288 15.7303 17.317 15.7303C16.9974 15.7303 16.7441 15.6672 16.5376 15.5372C16.4362 15.4742 16.3115 15.3796 16.2102 15.1905H18.2797C18.2017 15.3402 18.12 15.4506 18.0342 15.5215Z" stroke="black" stroke-width="2" mask="url(#path-2-inside-1_237_2)"/>
</svg>
