<svg width="45" height="48" viewBox="0 0 45 48" fill="none" xmlns="http://www.w3.org/2000/svg">
<path d="M28.3909 17.5131H25.8719V28.2439L18.4158 17.5131H15.9473V32.9795H18.4662V21.7198L26.3757 32.9795H28.3909V17.5131Z" fill="#64FFDA"/>
<path d="M21.352 2.16277C22.0624 1.75265 22.9376 1.75265 23.648 2.16277L40.8376 12.0872C41.548 12.4974 41.9856 13.2553 41.9856 14.0755V33.9245C41.9856 34.7447 41.548 35.5026 40.8376 35.9128L23.648 45.8372C22.9376 46.2474 22.0624 46.2474 21.352 45.8372L4.16239 35.9128C3.45203 35.5026 3.01443 34.7447 3.01443 33.9245V14.0755C3.01443 13.2553 3.45203 12.4974 4.16239 12.0872L21.352 2.16277Z" stroke="#64FFDA" stroke-width="2.29592"/>
</svg>
