<svg width="26" height="27" viewBox="0 0 26 27" fill="none" xmlns="http://www.w3.org/2000/svg">
<path d="M17.3361 8.92944C19.06 8.92944 20.7133 9.61426 21.9323 10.8332C23.1513 12.0522 23.8361 13.7055 23.8361 15.4294V23.0128H19.5028V15.4294C19.5028 14.8548 19.2745 14.3037 18.8682 13.8974C18.4618 13.4911 17.9107 13.2628 17.3361 13.2628C16.7615 13.2628 16.2104 13.4911 15.804 13.8974C15.3977 14.3037 15.1694 14.8548 15.1694 15.4294V23.0128H10.8361V15.4294C10.8361 13.7055 11.5209 12.0522 12.7399 10.8332C13.9589 9.61426 15.6122 8.92944 17.3361 8.92944V8.92944ZM2.16943 10.0128H6.50277V23.0128H2.16943V10.0128Z" stroke="#8892B0" stroke-width="1.19584" stroke-linecap="round" stroke-linejoin="round"/>
<path d="M4.3361 6.76302C5.53272 6.76302 6.50277 5.79297 6.50277 4.59635C6.50277 3.39974 5.53272 2.42969 4.3361 2.42969C3.13948 2.42969 2.16943 3.39974 2.16943 4.59635C2.16943 5.79297 3.13948 6.76302 4.3361 6.76302Z" stroke="#8892B0" stroke-width="1.19584" stroke-linecap="round" stroke-linejoin="round"/>
</svg>
