<svg width="26" height="26" viewBox="0 0 26 26" fill="none" xmlns="http://www.w3.org/2000/svg">
<g clip-path="url(#clip0_1280_1152)">
<path d="M9.56782 10.5332C9.97214 10.2875 10.1769 9.84225 10.1769 9.21784C10.1769 8.52688 9.90564 8.06117 9.36822 7.83595C8.9178 7.68244 8.33432 7.60566 7.63829 7.60566H3.76388V10.8966H8.0068C8.64144 10.8966 9.1686 10.7738 9.56782 10.5332ZM9.14816 9.21784C9.14816 9.45326 9.10726 9.60682 9.03048 9.65288C8.79506 9.79616 8.45213 9.86784 8.00173 9.86784H4.79268V8.63436H7.63836C8.20648 8.63436 8.66709 8.69063 9.00486 8.79813C9.05605 8.82373 9.14814 8.86466 9.14814 9.21781V9.21784H9.14816ZM9.52184 13.4761C9.17381 13.3174 8.67735 13.2304 8.05294 13.2253H3.76396V17.1867H8.00175C8.63639 17.1867 9.13798 17.0997 9.49111 16.9257C10.1411 16.6033 10.4687 15.9789 10.4687 15.073C10.4738 14.3053 10.1565 13.7678 9.52184 13.4761ZM4.79268 14.254H8.05289C8.67729 14.2592 8.97414 14.3564 9.09698 14.4127C9.28124 14.4997 9.44501 14.6123 9.44501 15.0729C9.44501 15.8048 9.16863 15.9379 9.03556 16.0044C8.93831 16.0505 8.6517 16.158 8.0017 16.158H4.79266L4.79268 14.254ZM21.5391 11.4954C21.0836 11.1064 20.5156 10.9067 19.8451 10.9067C19.1183 10.9067 18.54 11.1166 18.1356 11.5363C17.7313 11.9509 17.4754 12.519 17.3782 13.2253L17.373 13.2714H22.312L22.3069 13.2304C22.2506 12.4678 21.9947 11.8843 21.5391 11.4954ZM18.8829 12.2375C18.9699 12.1505 19.2053 11.9304 19.845 11.9304C20.2442 11.9304 20.5667 12.0327 20.8277 12.2375H18.8829ZM26.0686 12.8005C25.9151 11.8127 25.5722 10.9272 25.0502 10.1646C24.569 9.44808 23.9702 8.88507 23.2588 8.47562V4.39136H16.4415V8.51658C16.0269 8.76733 15.6482 9.06423 15.295 9.41736C14.4915 10.226 13.9643 11.265 13.7033 12.5138C13.5139 12.2374 13.2887 11.9866 13.0379 11.7666C13.0674 11.7328 13.0964 11.6987 13.1249 11.6642C13.7237 10.9425 14.0257 10.0111 14.0257 8.8902C14.0257 7.82052 13.7391 6.87878 13.171 6.0906C12.2446 4.8264 10.7194 4.1662 8.64139 4.13037H-0.0900879V20.6619H8.11936C8.91782 20.6619 9.68038 20.5902 10.3765 20.4418C11.1544 20.278 11.8402 19.9709 12.4186 19.5256C12.9304 19.1418 13.3552 18.6658 13.693 18.1079C13.8261 17.8981 13.9438 17.678 14.041 17.4477C14.3788 18.2717 14.8701 18.9524 15.5252 19.4796C16.7946 20.5032 18.2788 21.0201 19.937 21.0201C21.9536 21.0201 23.5607 20.3855 24.7122 19.1316C25.4748 18.3229 25.9099 17.4836 26.0122 16.6339L26.0787 16.0607H26.1504L26.1658 15.0883C26.1914 14.1363 26.1555 13.3635 26.0685 12.8005L26.0686 12.8005ZM11.2364 11.828L11.1545 11.8689L11.2415 11.8996C11.9734 12.1657 12.5313 12.5906 12.9049 13.1689C13.2785 13.7473 13.4679 14.4587 13.4679 15.2776C13.4679 16.1272 13.2529 16.9 12.823 17.5807C12.5518 18.0312 12.2089 18.4099 11.8046 18.717C11.349 19.065 10.7963 19.3107 10.177 19.4386C9.54746 19.5717 8.86166 19.6382 8.12977 19.6382H0.938766V5.1591H8.60062C10.3561 5.18467 11.6152 5.70162 12.3419 6.69452C12.7821 7.30359 13.0022 8.0406 13.0022 8.89533C13.0022 9.77052 12.777 10.4819 12.3368 11.0142C12.086 11.3111 11.7175 11.5823 11.2364 11.828ZM19.8451 7.63621C19.5891 7.63621 19.3384 7.64644 19.0978 7.67203H17.4703V5.42006H22.2352V7.67203H20.6077C20.3569 7.65157 20.101 7.63621 19.8451 7.63621ZM17.3064 15.0882C17.3525 16.1783 17.7364 16.9512 18.4529 17.3914C18.888 17.6626 19.4151 17.8008 20.0242 17.8008C20.6742 17.8008 21.2065 17.6319 21.6108 17.2992C21.8309 17.1201 22.0254 16.8745 22.1891 16.5674H24.9939C24.9069 17.1816 24.564 17.8111 23.9651 18.4457C23.0131 19.4796 21.662 20.0016 19.9423 20.0016C18.5246 20.0016 17.2553 19.5615 16.1754 18.6863C15.0954 17.8162 14.5478 16.3729 14.5478 14.4075C14.5478 12.565 15.0442 11.1268 16.0167 10.1441C16.8458 9.30988 17.9001 8.82365 19.1541 8.69568H20.5513C21.2013 8.7622 21.8052 8.91577 22.3529 9.16142C23.095 9.49406 23.7143 10.0264 24.1954 10.7429C24.6304 11.3724 24.917 12.1197 25.045 12.9539C25.1218 13.4452 25.1525 14.1464 25.1371 15.0472H17.3064V15.0882H17.3064ZM20.9659 16.5008C20.7407 16.685 20.4336 16.772 20.0242 16.772C19.6045 16.772 19.2719 16.6901 19.0006 16.5212C18.8675 16.4394 18.7037 16.3165 18.5707 16.0708H21.2884C21.186 16.2653 21.0785 16.4086 20.9659 16.5008L20.9659 16.5008Z" fill="#8892B0"/>
</g>
<defs>
<clipPath id="clip0_1280_1152">
<rect width="26" height="26" fill="white"/>
</clipPath>
</defs>
</svg>
