<svg width="20" height="13" viewBox="0 0 20 13" fill="none" xmlns="http://www.w3.org/2000/svg">
<path d="M7.3545 4.92826C7.66239 4.73916 7.81828 4.39641 7.81828 3.91581C7.81828 3.38398 7.61175 3.02552 7.2025 2.85218C6.8595 2.73402 6.41518 2.67492 5.88516 2.67492H2.9348V5.20794H6.16578C6.64906 5.20794 7.05049 5.11339 7.3545 4.92826ZM7.03493 3.91581C7.03493 4.09701 7.00378 4.21521 6.94531 4.25066C6.76604 4.36094 6.5049 4.41611 6.16192 4.41611H3.71823V3.46671H5.88521C6.31783 3.46671 6.66859 3.51002 6.9258 3.59276C6.96478 3.61246 7.03493 3.64398 7.03493 3.91581ZM7.31948 7.19336C7.05446 7.07123 6.6764 7.00426 6.20091 7.00033H2.93485V10.0494H6.16194C6.64521 10.0494 7.02717 9.98245 7.29609 9.84854C7.79106 9.60034 8.04048 9.11976 8.04048 8.42248C8.04441 7.83158 7.80276 7.41791 7.31948 7.19336ZM3.71823 7.79216H6.20088C6.67636 7.79611 6.90241 7.87094 6.99595 7.91428C7.13626 7.98126 7.26097 8.06789 7.26097 8.42244C7.26097 8.98577 7.05051 9.0882 6.94918 9.13944C6.87512 9.17489 6.65687 9.25762 6.1619 9.25762H3.71821L3.71823 7.79216ZM16.4707 5.6688C16.1238 5.3694 15.6912 5.21576 15.1806 5.21576C14.6272 5.21576 14.1868 5.37728 13.8789 5.70031C13.571 6.01941 13.3761 6.45666 13.3021 7.00031L13.2982 7.03578H17.0592L17.0553 7.00426C17.0124 6.41728 16.8175 5.9682 16.4707 5.6688ZM14.4479 6.24001C14.5142 6.17303 14.6934 6.00363 15.1806 6.00363C15.4846 6.00363 15.7301 6.08243 15.9289 6.24001H14.4479ZM19.9198 6.67334C19.8029 5.91303 19.5418 5.23151 19.1443 4.64453C18.7779 4.09302 18.3219 3.65968 17.7802 3.34452V0.200883H12.5888V3.37605C12.2731 3.56905 11.9847 3.79757 11.7158 4.06938C11.1039 4.69181 10.7024 5.49151 10.5037 6.4527C10.3594 6.23997 10.1879 6.04694 9.99697 5.87754C10.0194 5.85157 10.0415 5.82531 10.0632 5.79876C10.5192 5.24331 10.7492 4.52635 10.7492 3.66362C10.7492 2.84029 10.5309 2.11544 10.0983 1.50878C9.39285 0.535734 8.23141 0.0275753 6.64902 0H0V12.7242H6.2515C6.85952 12.7242 7.44021 12.6691 7.97028 12.5548C8.56268 12.4288 9.08494 12.1924 9.52535 11.8497C9.91508 11.5542 10.2386 11.1879 10.4958 10.7585C10.5971 10.597 10.6868 10.4276 10.7608 10.2503C11.0181 10.8846 11.3922 11.4085 11.8911 11.8142C12.8577 12.6021 13.9879 13 15.2507 13C16.7862 13 18.01 12.5115 18.8869 11.5464C19.4677 10.9239 19.799 10.2779 19.8769 9.62395L19.9276 9.18275H19.9821L19.9938 8.43427C20.0133 7.70154 19.986 7.10667 19.9198 6.67334ZM8.62513 5.92482L8.56276 5.9563L8.62902 5.97995C9.18635 6.1848 9.61118 6.51177 9.89569 6.95695C10.1802 7.4021 10.3244 7.94966 10.3244 8.57996C10.3244 9.23389 10.1607 9.82876 9.83333 10.3527C9.6268 10.6994 9.36566 10.9909 9.05777 11.2273C8.7109 11.4951 8.28998 11.6842 7.8184 11.7827C7.33899 11.8851 6.81675 11.9363 6.25942 11.9363H0.783472V0.791807H6.61797C7.95479 0.811487 8.91355 1.20938 9.46698 1.97362C9.80215 2.44242 9.96974 3.00969 9.96974 3.66757C9.96974 4.3412 9.79826 4.88876 9.46307 5.29846C9.2721 5.52696 8.99151 5.73574 8.62513 5.92482ZM15.1806 2.69843C14.9857 2.69843 14.7948 2.70631 14.6116 2.72601H13.3722V0.992671H17.0007V2.72601H15.7614C15.5704 2.71025 15.3755 2.69843 15.1806 2.69843ZM13.2474 8.43419C13.2825 9.27327 13.5749 9.86814 14.1205 10.2069C14.4518 10.4157 14.8532 10.5221 15.317 10.5221C15.812 10.5221 16.2173 10.3921 16.5252 10.136C16.6928 9.99816 16.8409 9.80908 16.9656 9.57273H19.1014C19.0352 10.0455 18.7741 10.53 18.318 11.0185C17.5931 11.8142 16.5642 12.2161 15.2546 12.2161C14.1751 12.2161 13.2085 11.8773 12.3861 11.2036C11.5638 10.5339 11.1467 9.42305 11.1467 7.9103C11.1467 6.49211 11.5248 5.38515 12.2653 4.62878C12.8967 3.98665 13.6996 3.6124 14.6544 3.5139H15.7184C16.2134 3.56511 16.6733 3.6833 17.0903 3.87238C17.6554 4.12842 18.127 4.53812 18.4934 5.08964C18.8247 5.5742 19.0429 6.14935 19.1403 6.79145C19.1988 7.16961 19.2222 7.70934 19.2105 8.40265H13.2474V8.43419ZM16.0342 9.52147C15.8627 9.66329 15.6288 9.73025 15.317 9.73025C14.9974 9.73025 14.7441 9.66722 14.5376 9.53722C14.4362 9.47419 14.3115 9.37964 14.2102 9.19054H16.2797C16.2017 9.34024 16.12 9.45057 16.0342 9.52147Z" fill="black"/>
</svg>
